<svg height="474pt" viewBox="-110 0 474 474.27999" width="474pt" xmlns="http://www.w3.org/2000/svg"><path d="m254.101562 0-41.140624 361.910156h-171.679688l-41.140625-361.910156zm0 0" fill="#00acea"/><path d="m204.308594 361.910156v62.21875h-154.378906v-62.21875zm0 0" fill="#00efd1"/><g fill="#fedb41"><path d="m73.058594 424.128906h108.121094v50.152344h-108.121094zm0 0"/><path d="m173.609375 127.769531c-3.234375 0-6.152344-1.949219-7.390625-4.9375s-.554688-6.429687 1.734375-8.71875l10.359375-10.359375c3.125-3.125 8.191406-3.125 11.316406 0 3.121094 3.125 3.121094 8.1875 0 11.3125l-10.363281 10.359375c-1.496094 1.503907-3.535156 2.347657-5.65625 2.34375zm0 0"/><path d="m69.390625 231.988281c-3.238281 0-6.152344-1.949219-7.390625-4.9375s-.554688-6.429687 1.734375-8.71875l10.359375-10.359375c3.125-3.125 8.1875-3.125 11.3125 0s3.125 8.191406 0 11.3125l-10.359375 10.363282c-1.5 1.5-3.535156 2.34375-5.65625 2.339843zm0 0"/><path d="m126.019531 109.039062c-4.417969 0-8-3.582031-8-8v-15.429687c0-4.417969 3.582031-8 8-8s8 3.582031 8 8v15.429687c0 4.417969-3.582031 8-8 8zm0 0"/><path d="m126.019531 256.671875c-4.417969 0-8-3.582031-8-8v-15.433594c0-4.417969 3.582031-8 8-8s8 3.582031 8 8v15.433594c0 4.417969-3.582031 8-8 8zm0 0"/><path d="m79.75 127.769531c-2.121094.003907-4.15625-.839843-5.65625-2.34375l-10.359375-10.359375c-3.125-3.125-3.125-8.1875 0-11.3125 3.121094-3.125 8.1875-3.125 11.3125 0l10.359375 10.359375c2.289062 2.289063 2.972656 5.730469 1.734375 8.71875s-4.15625 4.9375-7.390625 4.9375zm0 0"/><path d="m183.96875 231.988281c-2.121094.003907-4.15625-.839843-5.65625-2.339843l-10.359375-10.363282c-3.125-3.121094-3.125-8.1875 0-11.3125s8.191406-3.125 11.3125 0l10.363281 10.359375c2.285156 2.289063 2.96875 5.730469 1.730469 8.71875s-4.152344 4.9375-7.390625 4.9375zm0 0"/><path d="m59.921875 175.140625h-13.230469c-4.417968 0-8-3.582031-8-8s3.582032-8 8-8h13.230469c4.417969 0 8 3.582031 8 8s-3.582031 8-8 8zm0 0"/><path d="m207.550781 175.140625h-15.429687c-4.417969 0-8-3.582031-8-8s3.582031-8 8-8h15.429687c4.417969 0 8 3.582031 8 8s-3.582031 8-8 8zm0 0"/><path d="m166.101562 166.699219c0 21.773437-17.652343 39.421875-39.421874 39.421875-21.769532 0-39.417969-17.648438-39.417969-39.421875 0-21.769531 17.648437-39.417969 39.417969-39.417969 21.769531 0 39.421874 17.648438 39.421874 39.417969zm0 0"/></g></svg>