<svg height="512pt" viewBox="0 -18 512 512" width="512pt" xmlns="http://www.w3.org/2000/svg"><path d="m273.65625 194.207031c0-9.816406-14.300781-27.640625-8.828125-34.992187v-115.078125c0-24.273438-19.863281-44.136719-44.136719-44.136719-24.277344 0-44.140625 19.863281-44.140625 44.136719v79.765625c5.472657 7.355468 0 33.6875 0 43.496094v88.601562c8.058594-10.832031 38.507813-18 52.964844-18 14.46875 0 27.253906 7.152344 35.3125 18zm0 0" fill="#1a9172"/><path d="m220.691406 229.515625c-4.875 0-8.828125-3.953125-8.828125-8.824219v-141.242187c0-4.875 3.953125-8.828125 8.828125-8.828125 4.871094 0 8.824219 3.953125 8.824219 8.828125v141.242187c0 4.871094-3.953125 8.824219-8.824219 8.824219zm0 0" fill="#be7c6d"/><path d="m220.691406 229.515625c-2.261718 0-4.519531-.863281-6.242187-2.585937-3.453125-3.449219-3.453125-9.03125 0-12.480469l17.65625-17.65625c3.449219-3.453125 9.027343-3.453125 12.480469 0 3.453124 3.453125 3.453124 9.03125 0 12.484375l-17.65625 17.652344c-1.71875 1.722656-3.980469 2.585937-6.238282 2.585937zm0 0" fill="#be7c6d"/><path d="m220.691406 150.070312c-2.261718 0-4.519531-.867187-6.242187-2.585937-3.453125-3.453125-3.453125-9.03125 0-12.484375l17.65625-17.65625c3.449219-3.449219 9.027343-3.449219 12.480469 0 3.453124 3.453125 3.453124 9.03125 0 12.484375l-17.65625 17.65625c-1.71875 1.71875-3.980469 2.585937-6.238282 2.585937zm0 0" fill="#be7c6d"/><path d="m220.691406 185.378906c-2.261718 0-4.519531-.863281-6.242187-2.585937l-17.65625-17.65625c-3.453125-3.449219-3.453125-9.03125 0-12.480469 3.453125-3.453125 9.03125-3.453125 12.484375 0l17.652344 17.65625c3.453124 3.449219 3.453124 9.027344 0 12.480469-1.71875 1.722656-3.980469 2.585937-6.238282 2.585937zm0 0" fill="#be7c6d"/><path d="m88.277344 35.308594c-24.277344 0-44.140625 19.863281-44.140625 44.140625v114.757812c0 .300781.089843.582031.089843.890625 2.832032-.574218 5.746094 87.386719 8.738282 87.386719 23.976562 0 43.566406-41.519531 44.050781-17.65625.027344-.007813.0625-27.375.085937-27.382813l35.3125 53.863282v-211.859375c0-24.277344-19.863281-44.140625-44.136718-44.140625zm0 0" fill="#3d6f44"/><path d="m423.722656 35.308594c-24.273437 0-44.136718 19.863281-44.136718 44.140625v27.382812l8.828124 193.296875c.027344.007813.0625 0 .089844.007813.484375-23.859375 46.554688-61.792969 70.53125-61.792969 2.992188 0 5.90625-43.820312 8.738282-43.246094 0-.308594.089843-.589844.089843-.890625v-114.757812c0-24.277344-19.863281-44.140625-44.140625-44.140625zm0 0" fill="#61b872"/><path d="m326.621094 353.101562v-202.769531c-7.40625-5.621093-16.527344-9.089843-26.484375-9.089843-24.273438 0-44.136719 19.859374-44.136719 44.136718v53.285156c5.472656 7.351563-8.828125 16.347657-8.828125 26.164063v88.273437c0 6.765626 15.988281 13.109376 13.242187 18.847657 7.113282 14.875 22.210938 25.292969 39.722657 25.292969 14.460937 0 27.253906-7.140626 35.3125-17.972657-5.472657-7.355469-8.828125-16.351562-8.828125-26.167969zm0 0" fill="#3d6f44"/><path d="m52.964844 397.242188c-24.273438 0-44.136719-19.863282-44.136719-44.140626v-114.757812c0-24.273438 19.863281-44.136719 44.136719-44.136719 24.277344 0 44.136718 19.863281 44.136718 44.136719v114.757812c0 24.277344-19.859374 44.140626-44.136718 44.140626zm0 0" fill="#61b872"/><path d="m52.964844 335.449219c-2.257813 0-4.519532-.867188-6.242188-2.585938-3.449218-3.453125-3.449218-9.03125 0-12.484375l17.65625-17.65625c3.453125-3.449218 9.03125-3.449218 12.484375 0 3.449219 3.453125 3.449219 9.03125 0 12.484375l-17.65625 17.65625c-1.722656 1.71875-3.980469 2.585938-6.242187 2.585938zm0 0" fill="#be7c6d"/><path d="m52.964844 370.757812c-2.257813 0-4.519532-.863281-6.242188-2.585937l-17.652344-17.65625c-3.453124-3.449219-3.453124-9.027344 0-12.480469 3.449219-3.453125 9.03125-3.453125 12.480469 0l17.65625 17.65625c3.453125 3.449219 3.453125 9.027344 0 12.480469-1.722656 1.722656-3.980469 2.585937-6.242187 2.585937zm0 0" fill="#be7c6d"/><path d="m141.242188 335.449219c-2.261719 0-4.519532-.867188-6.242188-2.585938-3.453125-3.453125-3.453125-9.03125 0-12.484375l17.65625-17.65625c3.449219-3.449218 9.03125-3.449218 12.480469 0 3.453125 3.453125 3.453125 9.03125 0 12.484375l-17.652344 17.65625c-1.722656 1.71875-3.984375 2.585938-6.242187 2.585938zm0 0" fill="#be7c6d"/><path d="m141.242188 370.757812c-2.261719 0-4.519532-.863281-6.242188-2.585937l-17.65625-17.65625c-3.449219-3.449219-3.449219-9.027344 0-12.480469 3.453125-3.453125 9.03125-3.453125 12.484375 0l17.65625 17.65625c3.449219 3.449219 3.449219 9.027344 0 12.480469-1.722656 1.722656-3.984375 2.585937-6.242187 2.585937zm0 0" fill="#be7c6d"/><path d="m141.242188 256c-2.261719 0-4.519532-.863281-6.242188-2.585938-3.453125-3.453124-3.453125-9.03125 0-12.484374l17.65625-17.652344c3.449219-3.453125 9.03125-3.453125 12.480469 0 3.453125 3.449218 3.453125 9.03125 0 12.480468l-17.652344 17.65625c-1.722656 1.722657-3.984375 2.585938-6.242187 2.585938zm0 0" fill="#be7c6d"/><path d="m141.242188 291.308594c-2.261719 0-4.519532-.863282-6.242188-2.585938l-17.65625-17.652344c-3.449219-3.453124-3.449219-9.03125 0-12.484374 3.453125-3.449219 9.03125-3.449219 12.484375 0l17.65625 17.65625c3.449219 3.449218 3.449219 9.03125 0 12.480468-1.722656 1.722656-3.984375 2.585938-6.242187 2.585938zm0 0" fill="#be7c6d"/><path d="m220.691406 397.242188c-24.277344 0-44.140625-19.863282-44.140625-44.140626v-88.273437c0-24.277344 19.863281-44.136719 44.140625-44.136719 24.273438 0 44.136719 19.859375 44.136719 44.136719v88.273437c0 24.277344-19.863281 44.140626-44.136719 44.140626zm0 0" fill="#61b872"/><path d="m220.691406 361.929688c-2.261718 0-4.519531-.863282-6.242187-2.585938-3.453125-3.449219-3.453125-9.03125 0-12.480469l17.65625-17.65625c3.449219-3.453125 9.027343-3.453125 12.480469 0 3.453124 3.453125 3.453124 9.03125 0 12.480469l-17.65625 17.65625c-1.71875 1.722656-3.980469 2.585938-6.238282 2.585938zm0 0" fill="#be7c6d"/><path d="m52.964844 436.339844c-4.871094 0-8.828125-3.957032-8.828125-8.828125v-153.855469c0-4.875 3.957031-8.828125 8.828125-8.828125 4.875 0 8.828125 3.953125 8.828125 8.828125v153.855469c0 4.871093-3.953125 8.828125-8.828125 8.828125zm0 0" fill="#be7c6d"/><path d="m459.035156 397.242188c24.273438 0 44.136719-19.863282 44.136719-44.140626v-114.757812c0-24.273438-19.863281-44.136719-44.136719-44.136719-24.277344 0-44.136718 19.863281-44.136718 44.136719v114.757812c0 24.277344 19.859374 44.140626 44.136718 44.140626zm0 0" fill="#1a9172"/><path d="m459.035156 335.449219c-2.261718 0-4.519531-.867188-6.242187-2.585938l-17.65625-17.65625c-3.449219-3.453125-3.449219-9.03125 0-12.484375 3.453125-3.449218 9.03125-3.449218 12.484375 0l17.65625 17.65625c3.449218 3.453125 3.449218 9.03125 0 12.484375-1.722656 1.71875-3.984375 2.585938-6.242188 2.585938zm0 0" fill="#be7c6d"/><path d="m459.035156 370.757812c-2.261718 0-4.519531-.863281-6.242187-2.585937-3.453125-3.453125-3.453125-9.03125 0-12.480469l17.65625-17.65625c3.449219-3.453125 9.03125-3.453125 12.480469 0 3.453124 3.453125 3.453124 9.03125 0 12.480469l-17.652344 17.65625c-1.722656 1.722656-3.984375 2.585937-6.242188 2.585937zm0 0" fill="#be7c6d"/><path d="m370.757812 397.242188c24.277344 0 44.140626-19.863282 44.140626-44.140626v-203.03125c0-24.277343-19.863282-44.140624-44.140626-44.140624-24.273437 0-44.136718 19.863281-44.136718 44.140624v203.03125c0 24.277344 19.863281 44.140626 44.136718 44.140626zm0 0" fill="#23a24d"/><g fill="#be7c6d"><path d="m370.757812 476.691406c-4.871093 0-8.828124-3.957031-8.828124-8.828125v-282.484375c0-4.871094 3.957031-8.828125 8.828124-8.828125 4.875 0 8.828126 3.957031 8.828126 8.828125v282.484375c0 4.871094-3.953126 8.828125-8.828126 8.828125zm0 0"/><path d="m370.757812 335.449219c-2.257812 0-4.519531-.867188-6.242187-2.585938l-17.652344-17.65625c-3.453125-3.453125-3.453125-9.03125 0-12.484375 3.449219-3.449218 9.03125-3.449218 12.480469 0l17.65625 17.65625c3.453125 3.453125 3.453125 9.03125 0 12.484375-1.722656 1.71875-3.980469 2.585938-6.242188 2.585938zm0 0"/><path d="m370.757812 370.757812c-2.257812 0-4.519531-.863281-6.242187-2.585937-3.449219-3.453125-3.449219-9.03125 0-12.480469l17.65625-17.65625c3.453125-3.453125 9.03125-3.453125 12.484375 0 3.449219 3.453125 3.449219 9.03125 0 12.480469l-17.65625 17.65625c-1.722656 1.722656-3.980469 2.585937-6.242188 2.585937zm0 0"/><path d="m370.757812 256c-2.257812 0-4.519531-.863281-6.242187-2.585938l-17.652344-17.65625c-3.453125-3.449218-3.453125-9.03125 0-12.480468 3.449219-3.453125 9.03125-3.453125 12.480469 0l17.65625 17.652344c3.453125 3.453124 3.453125 9.03125 0 12.484374-1.722656 1.722657-3.980469 2.585938-6.242188 2.585938zm0 0"/><path d="m370.757812 291.308594c-2.257812 0-4.519531-.863282-6.242187-2.585938-3.449219-3.449218-3.449219-9.03125 0-12.480468l17.65625-17.65625c3.453125-3.449219 9.03125-3.449219 12.484375 0 3.449219 3.453124 3.449219 9.03125 0 12.484374l-17.65625 17.652344c-1.722656 1.722656-3.980469 2.585938-6.242188 2.585938zm0 0"/><path d="m300.136719 432.550781c-4.871094 0-8.828125-3.953125-8.828125-8.828125v-238.34375c0-4.871094 3.957031-8.828125 8.828125-8.828125 4.875 0 8.828125 3.957031 8.828125 8.828125v238.34375c0 4.875-3.953125 8.828125-8.828125 8.828125zm0 0"/><path d="m300.136719 335.449219c-2.257813 0-4.519531-.867188-6.238281-2.585938l-17.65625-17.65625c-3.453126-3.453125-3.453126-9.03125 0-12.484375 3.449218-3.449218 9.03125-3.449218 12.480468 0l17.65625 17.65625c3.453125 3.453125 3.453125 9.03125 0 12.484375-1.722656 1.71875-3.980468 2.585938-6.242187 2.585938zm0 0"/><path d="m300.136719 256c-2.257813 0-4.519531-.863281-6.238281-2.585938l-17.65625-17.65625c-3.453126-3.449218-3.453126-9.03125 0-12.480468 3.449218-3.453125 9.03125-3.453125 12.480468 0l17.65625 17.652344c3.453125 3.453124 3.453125 9.03125 0 12.484374-1.722656 1.722657-3.980468 2.585938-6.242187 2.585938zm0 0"/><path d="m459.035156 436.339844c-4.875 0-8.828125-3.957032-8.828125-8.828125v-153.855469c0-4.875 3.953125-8.828125 8.828125-8.828125 4.871094 0 8.828125 3.953125 8.828125 8.828125v153.855469c0 4.871093-3.957031 8.828125-8.828125 8.828125zm0 0"/></g><path d="m176.550781 353.101562v-88.273437c0-9.816406 3.355469-18.8125 8.828125-26.164063v-88.59375c0-24.277343-19.863281-44.140624-44.136718-44.140624-24.277344 0-44.140626 19.863281-44.140626 44.140624v203.03125c0 24.277344 19.863282 44.140626 44.140626 44.140626 17.511718 0 32.609374-10.417969 39.722656-25.292969-2.746094-5.738281-4.414063-12.082031-4.414063-18.847657zm0 0" fill="#23a24d"/><path d="m141.242188 457.296875c-4.875 0-8.828126-3.957031-8.828126-8.828125v-263.089844c0-4.871094 3.953126-8.828125 8.828126-8.828125 4.871093 0 8.828124 3.957031 8.828124 8.828125v263.089844c0 4.871094-3.957031 8.828125-8.828124 8.828125zm0 0" fill="#be7c6d"/><path d="m220.691406 454.257812c-4.875 0-8.828125-3.953124-8.828125-8.828124v-145.292969c0-4.871094 3.953125-8.828125 8.828125-8.828125 4.871094 0 8.824219 3.957031 8.824219 8.828125v145.292969c0 4.882812-3.953125 8.828124-8.824219 8.828124zm0 0" fill="#be7c6d"/><path d="m396.4375 448.351562c2.550781 0 4.96875.769532 7.292969 1.855469 8.015625-19.324219 21.875-26.484375 37.648437-26.484375 15.773438 0 29.625 7.160156 37.648438 26.484375 2.324218-1.085937 4.742187-1.855469 7.292968-1.855469 14.175782 0 25.679688 6.046876 25.679688 28.339844h-141.242188c0-22.292968 11.496094-28.339844 25.679688-28.339844zm0 0" fill="#61b872"/><path d="m140.4375 448.351562c2.550781 0 4.96875.769532 7.292969 1.855469 8.015625-19.324219 21.875-26.484375 37.648437-26.484375 15.773438 0 29.625 7.160156 37.648438 26.484375 2.324218-1.085937 4.742187-1.855469 7.292968-1.855469 14.175782 0 25.679688 6.046876 25.679688 28.339844h-141.242188c0-22.292968 11.496094-28.339844 25.679688-28.339844zm0 0" fill="#61b872"/><path d="m128 450.648438c-3.699219-1.570313-7.902344-2.296876-12.4375-2.296876-2.550781 0-4.96875.769532-7.292969 1.855469-8.023437-19.324219-21.875-26.484375-37.648437-26.484375-15.773438 0-29.625 7.160156-37.648438 26.484375-2.324218-1.085937-4.742187-1.855469-7.292968-1.855469-14.1875 0-25.679688 6.046876-25.679688 28.339844h114.757812c0-15.160156 5.375-22.699218 13.242188-26.042968zm0 0" fill="#23a24d"/><path d="m345.078125 448.351562c-2.550781 0-4.96875.769532-7.289063 1.855469-8.015624-19.324219-21.875-26.484375-37.652343-26.484375-15.773438 0-29.625 7.160156-37.648438 26.484375-2.320312-1.085937-4.742187-1.855469-7.292969-1.855469-4.535156 0-8.738281.726563-12.4375 2.296876 7.867188 3.34375 13.242188 10.882812 13.242188 26.042968h114.757812c0-22.292968-11.492187-28.339844-25.679687-28.339844zm0 0" fill="#3d6f44"/></svg>