<svg height="512pt" viewBox="-37 0 512 512" width="512pt" xmlns="http://www.w3.org/2000/svg"><path d="m65.867188 114.726562c16.292968-65.878906 75.789062-114.72265575 146.707031-114.72265575 69.636719 0 128.265625 47.10156275 145.785156 111.18359375 45.464844 7.667969 80.097656 47.21875 80.097656 94.863281 0 53.140625-43.074219 96.214844-96.214843 96.214844-21.296876 0-40.976563-6.925781-56.914063-18.640625-21.585937 11.878906-46.378906 18.640625-72.753906 18.640625-23.339844 0-45.4375-5.292969-65.171875-14.738281-14.824219 9.332031-32.375 14.738281-51.1875 14.738281-53.136719 0-96.214844-43.078125-96.214844-96.214844 0-42.53125 27.601562-78.613281 65.867188-91.324219zm0 0" fill="#70efef"/><path d="m0 206.054688c0 46.410156 32.867188 85.148437 76.589844 94.203124-21.121094-17.636718-34.5625-44.175781-34.5625-73.855468 0-42.527344 27.601562-78.617188 65.871094-91.324219 16.292968-65.878906 75.792968-114.722656 146.707031-114.722656 15.300781 0 30.066406 2.273437 43.984375 6.5-24.414063-16.929688-54.0625-26.855469-86.015625-26.855469-70.921875 0-130.414063 48.84375-146.703125 114.722656-38.269532 12.71875-65.871094 48.796875-65.871094 91.332032zm0 0" fill="#42d2d9"/><path d="m427.535156 383.148438c0 13.246093-10.738281 23.984374-23.980468 23.984374-13.246094 0-23.984376-10.738281-23.984376-23.984374 0-9.640626 12.707032-31.609376 19.621094-42.851563 2-3.25 6.722656-3.25 8.722656 0 6.914063 11.242187 19.621094 33.210937 19.621094 42.851563zm0 0" fill="#70efef"/><path d="m412.683594 405.328125c-2.8125 1.164063-5.898438 1.804687-9.128906 1.804687-13.246094 0-23.984376-10.738281-23.984376-23.984374 0-9.636719 12.703126-31.613282 19.621094-42.851563 2-3.25 6.726563-3.25 8.722656 0 1.394532 2.269531 3.035157 4.988281 4.769532 7.957031-6.789063 11.675782-14.867188 27.203125-14.867188 34.894532 0 10.015624 6.144532 18.59375 14.867188 22.179687zm0 0" fill="#42d2d9"/><path d="m304.652344 383.148438c0 13.246093-10.738282 23.984374-23.980469 23.984374-13.246094 0-23.984375-10.738281-23.984375-23.984374 0-9.640626 12.707031-31.609376 19.621094-42.851563 2-3.25 6.722656-3.25 8.722656 0 6.914062 11.242187 19.621094 33.210937 19.621094 42.851563zm0 0" fill="#70efef"/><path d="m289.800781 405.328125c-2.8125 1.164063-5.898437 1.804687-9.128906 1.804687-13.246094 0-23.984375-10.738281-23.984375-23.984374 0-9.636719 12.703125-31.613282 19.621094-42.851563 2-3.25 6.726562-3.25 8.722656 0 1.394531 2.269531 3.035156 4.988281 4.769531 7.957031-6.789062 11.675782-14.867187 27.203125-14.867187 34.894532 0 10.015624 6.144531 18.59375 14.867187 22.179687zm0 0" fill="#42d2d9"/><path d="m181.769531 383.148438c0 13.246093-10.738281 23.984374-23.980469 23.984374-13.246093 0-23.984374-10.738281-23.984374-23.984374 0-9.640626 12.707031-31.609376 19.621093-42.851563 2.003907-3.25 6.722657-3.25 8.722657 0 6.914062 11.242187 19.621093 33.210937 19.621093 42.851563zm0 0" fill="#70efef"/><path d="m166.917969 405.328125c-2.8125 1.164063-5.898438 1.804687-9.128907 1.804687-13.246093 0-23.984374-10.738281-23.984374-23.984374 0-9.636719 12.707031-31.613282 19.625-42.851563 1.996093-3.25 6.722656-3.25 8.71875 0 1.398437 2.269531 3.035156 4.988281 4.769531 7.957031-6.785157 11.675782-14.867188 27.203125-14.867188 34.894532.003907 10.015624 6.144531 18.59375 14.867188 22.179687zm0 0" fill="#42d2d9"/><path d="m58.890625 383.148438c0 13.246093-10.738281 23.984374-23.984375 23.984374s-23.984375-10.738281-23.984375-23.984374c0-9.640626 12.707031-31.609376 19.625-42.851563 2-3.25 6.71875-3.25 8.71875 0 6.914063 11.242187 19.625 33.210937 19.625 42.851563zm0 0" fill="#70efef"/><path d="m44.035156 405.328125c-2.8125 1.164063-5.898437 1.804687-9.128906 1.804687-13.246094 0-23.984375-10.738281-23.984375-23.984374 0-9.636719 12.707031-31.613282 19.625-42.851563 1.996094-3.25 6.722656-3.25 8.71875 0 1.398437 2.269531 3.039063 4.988281 4.769531 7.957031-6.785156 11.675782-14.863281 27.203125-14.863281 34.894532 0 10.015624 6.140625 18.59375 14.863281 22.179687zm0 0" fill="#42d2d9"/><path d="m366.09375 488.015625c0 13.246094-10.738281 23.980469-23.980469 23.980469-13.246093 0-23.984375-10.734375-23.984375-23.980469 0-9.640625 12.707032-31.609375 19.621094-42.851563 2.003906-3.253906 6.722656-3.253906 8.722656 0 6.914063 11.242188 19.621094 33.207032 19.621094 42.851563zm0 0" fill="#70efef"/><path d="m351.242188 510.195312c-2.8125 1.164063-5.898438 1.804688-9.128907 1.804688-13.246093 0-23.984375-10.738281-23.984375-23.984375 0-9.636719 12.707032-31.613281 19.625-42.851563 1.996094-3.25 6.722656-3.25 8.71875 0 1.394532 2.269532 3.035156 4.992188 4.769532 7.957032-6.789063 11.675781-14.867188 27.203125-14.867188 34.894531 0 10.015625 6.144531 18.59375 14.867188 22.179687zm0 0" fill="#42d2d9"/><path d="m243.210938 488.015625c0 13.246094-10.738282 23.980469-23.980469 23.980469-13.246094 0-23.984375-10.734375-23.984375-23.980469 0-9.640625 12.707031-31.609375 19.621094-42.851563 2-3.253906 6.722656-3.253906 8.722656 0 6.914062 11.242188 19.621094 33.207032 19.621094 42.851563zm0 0" fill="#70efef"/><path d="m228.359375 510.195312c-2.8125 1.164063-5.898437 1.804688-9.128906 1.804688-13.246094 0-23.984375-10.738281-23.984375-23.984375 0-9.636719 12.703125-31.613281 19.621094-42.851563 2-3.25 6.726562-3.25 8.722656 0 1.394531 2.269532 3.035156 4.992188 4.769531 7.957032-6.789063 11.675781-14.867187 27.203125-14.867187 34.894531 0 10.015625 6.144531 18.59375 14.867187 22.179687zm0 0" fill="#42d2d9"/><path d="m120.328125 488.015625c0 13.246094-10.734375 23.980469-23.980469 23.980469s-23.984375-10.734375-23.984375-23.980469c0-9.640625 12.707031-31.609375 19.621094-42.851563 2.003906-3.253906 6.722656-3.253906 8.722656 0 6.914063 11.242188 19.621094 33.207032 19.621094 42.851563zm0 0" fill="#70efef"/><path d="m105.476562 510.195312c-2.8125 1.164063-5.898437 1.804688-9.128906 1.804688-13.246094 0-23.984375-10.738281-23.984375-23.984375 0-9.636719 12.707031-31.613281 19.625-42.851563 1.996094-3.25 6.722657-3.25 8.71875 0 1.398438 2.269532 3.035157 4.992188 4.769531 7.957032-6.785156 11.675781-14.867187 27.203125-14.867187 34.894531 0 10.015625 6.144531 18.59375 14.867187 22.179687zm0 0" fill="#42d2d9"/></svg>